<svg xmlns="http://www.w3.org/2000/svg" width="578.1" height="199.1" viewBox="0 0 578.1 199.1"><path fill="#99C21D" d="M14.8 155h548.5v39H14.8v-39zM468.9 5.1l22 22-22 21.9L447 27.1l21.9-22z"/><path fill="#6F3015" d="M98.1 61.2H14.9v23.2h26.6v55.3h30.1V84.4h26.5V61.2z"/><path fill-rule="evenodd" clip-rule="evenodd" fill="#6F3015" d="M188.6 100.5c0-26.3-16.4-40.6-43.8-40.6s-43.5 14.3-43.5 40.6c0 26.7 16.1 40.6 43.5 40.6 27.4-.1 43.8-13.9 43.8-40.6zm-55.8 0c0-7.3.9-21.7 12-21.7 11.5 0 12.2 14.4 12.4 21.7-.1 8.4-.5 21.7-12.4 21.7-10.8 0-12-13.3-12-21.7zm63.6 39.2h30.1v-22.6h21.6c15.7 0 28.9-8.4 28.9-28.9 0-21.1-16.5-27-28.8-27h-51.8v78.5zm29.3-60.3h6.5c7.3 0 14.6 1 14.6 9.3 0 8.8-7.3 10.1-14.5 10.1h-6.6V79.4z"/><path fill="#6F3015" d="M349.3 62.6c-8.2-1.7-17.5-2.7-26-2.7-17.9 0-40.3 3.8-40.3 25.4 0 30.5 41.2 20.9 41.2 31.5 0 3.9-6.4 5.4-13.5 5.4-9 0-18.9-1.8-27-5.2v20.3c11.2 2.6 20.8 3.7 32.4 3.7 17.4 0 38.2-5.3 38.2-26.3 0-30.2-41.2-20.6-41.2-30.8 0-5.1 8.2-5.2 12.9-5.2 8.5 0 16.5 1.6 23.3 3.9v-20z"/><path fill-rule="evenodd" clip-rule="evenodd" fill="#6F3015" d="M446.6 100.5c0-26.3-16.4-40.6-43.8-40.6s-43.5 14.3-43.5 40.6c0 26.7 16.1 40.6 43.5 40.6 27.3-.1 43.8-13.9 43.8-40.6zm-55.9 0c0-7.3.9-21.7 12-21.7 11.5 0 12.2 14.4 12.4 21.7-.1 8.4-.5 21.7-12.4 21.7-10.8 0-12-13.3-12-21.7z"/><path fill="#6F3015" d="M454.4 61.2v78.5h30.1V61.2h-30.1zm41.4 78.5h67.1v-23.2h-37V61.2h-30.1v78.5z"/></svg>
