<svg xmlns="http://www.w3.org/2000/svg" width="338.828" height="436.683" viewBox="0 0 338.828 436.683">
  <g id="undraw_environment_iaus" transform="translate(-547.172)">
    <path id="Path_14" data-name="Path 14" d="M802.239,236.779a27.041,27.041,0,0,0-23.309,16.3c-5.828,14.089,1.676,30.638,12.942,40.912s25.737,16.146,38.886,23.865c17.661,10.368,33.53,24.76,42.367,43.234s9.776,41.359-.611,59.008c-9.641,16.381-27.171,26.186-43.891,35.228" transform="translate(-157 -122.599)" fill="none" stroke="#3f3d56" stroke-miterlimit="10" stroke-width="1"/>
    <path id="Path_15" data-name="Path 15" d="M849.3,150.885A27.041,27.041,0,0,0,826,167.182c-5.828,14.089,1.676,30.638,12.942,40.912s25.737,16.146,38.886,23.865c17.661,10.368,33.53,24.76,42.367,43.234s9.776,41.359-.611,59.008c-9.641,16.381-27.171,26.186-43.891,35.228" transform="translate(-157 -122.599)" fill="none" stroke="#3f3d56" stroke-miterlimit="10" stroke-width="1"/>
    <path id="Path_16" data-name="Path 16" d="M1004.051,170.64a27.041,27.041,0,0,0-28.408-1.382c-13.233,7.572-17.431,25.252-14.812,40.272s10.467,28.523,16.138,42.675c7.618,19.009,11.356,40.1,7.034,60.122s-17.588,38.688-36.606,46.285c-17.652,7.051-37.515,4.072-56.271.987" transform="translate(-157 -122.599)" fill="none" stroke="#3f3d56" stroke-miterlimit="10" stroke-width="1"/>
    <ellipse id="Ellipse_1" data-name="Ellipse 1" cx="28.239" cy="13.716" rx="28.239" ry="13.716" transform="translate(682.444 198.173)" fill="#99c21d"/>
    <ellipse id="Ellipse_2" data-name="Ellipse 2" cx="28.239" cy="13.716" rx="28.239" ry="13.716" transform="translate(678.914 195.82)" fill="none" stroke="#3f3d56" stroke-miterlimit="10" stroke-width="1"/>
    <ellipse id="Ellipse_3" data-name="Ellipse 3" cx="28.239" cy="13.716" rx="28.239" ry="13.716" transform="translate(743.628 186.407)" fill="#99c21d"/>
    <ellipse id="Ellipse_4" data-name="Ellipse 4" cx="28.239" cy="13.716" rx="28.239" ry="13.716" transform="translate(740.098 184.054)" fill="none" stroke="#3f3d56" stroke-miterlimit="10" stroke-width="1"/>
    <ellipse id="Ellipse_5" data-name="Ellipse 5" cx="28.239" cy="13.716" rx="28.239" ry="13.716" transform="translate(753.041 238.179)" fill="#99c21d"/>
    <ellipse id="Ellipse_6" data-name="Ellipse 6" cx="28.239" cy="13.716" rx="28.239" ry="13.716" transform="translate(749.511 235.825)" fill="none" stroke="#3f3d56" stroke-miterlimit="10" stroke-width="1"/>
    <ellipse id="Ellipse_7" data-name="Ellipse 7" cx="28.239" cy="13.716" rx="28.239" ry="13.716" transform="translate(747.158 108.75)" fill="#99c21d"/>
    <ellipse id="Ellipse_8" data-name="Ellipse 8" cx="28.239" cy="13.716" rx="28.239" ry="13.716" transform="translate(743.628 106.396)" fill="none" stroke="#3f3d56" stroke-miterlimit="10" stroke-width="1"/>
    <ellipse id="Ellipse_9" data-name="Ellipse 9" cx="28.239" cy="13.716" rx="28.239" ry="13.716" transform="translate(676.56 100.513)" fill="#99c21d"/>
    <ellipse id="Ellipse_10" data-name="Ellipse 10" cx="28.239" cy="13.716" rx="28.239" ry="13.716" transform="translate(673.031 98.16)" fill="none" stroke="#3f3d56" stroke-miterlimit="10" stroke-width="1"/>
    <ellipse id="Ellipse_11" data-name="Ellipse 11" cx="28.239" cy="13.716" rx="28.239" ry="13.716" transform="translate(708.329 71.098)" fill="#99c21d"/>
    <ellipse id="Ellipse_12" data-name="Ellipse 12" cx="28.239" cy="13.716" rx="28.239" ry="13.716" transform="translate(704.799 68.744)" fill="none" stroke="#3f3d56" stroke-miterlimit="10" stroke-width="1"/>
    <ellipse id="Ellipse_13" data-name="Ellipse 13" cx="28.239" cy="13.716" rx="28.239" ry="13.716" transform="translate(777.75 76.981)" fill="#99c21d"/>
    <ellipse id="Ellipse_14" data-name="Ellipse 14" cx="28.239" cy="13.716" rx="28.239" ry="13.716" transform="translate(774.22 74.627)" fill="none" stroke="#3f3d56" stroke-miterlimit="10" stroke-width="1"/>
    <ellipse id="Ellipse_15" data-name="Ellipse 15" cx="28.239" cy="13.716" rx="28.239" ry="13.716" transform="translate(829.522 115.809)" fill="#99c21d"/>
    <ellipse id="Ellipse_16" data-name="Ellipse 16" cx="28.239" cy="13.716" rx="28.239" ry="13.716" transform="translate(825.992 113.456)" fill="none" stroke="#3f3d56" stroke-miterlimit="10" stroke-width="1"/>
    <ellipse id="Ellipse_17" data-name="Ellipse 17" cx="28.239" cy="13.716" rx="28.239" ry="13.716" transform="translate(647.145 47.565)" fill="#99c21d"/>
    <ellipse id="Ellipse_18" data-name="Ellipse 18" cx="28.239" cy="13.716" rx="28.239" ry="13.716" transform="translate(643.615 45.212)" fill="none" stroke="#3f3d56" stroke-miterlimit="10" stroke-width="1"/>
    <ellipse id="Ellipse_19" data-name="Ellipse 19" cx="28.239" cy="13.716" rx="28.239" ry="13.716" transform="translate(664.794 2.853)" fill="#99c21d"/>
    <ellipse id="Ellipse_20" data-name="Ellipse 20" cx="28.239" cy="13.716" rx="28.239" ry="13.716" transform="translate(661.264 0.5)" fill="none" stroke="#3f3d56" stroke-miterlimit="10" stroke-width="1"/>
    <ellipse id="Ellipse_21" data-name="Ellipse 21" cx="28.239" cy="13.716" rx="28.239" ry="13.716" transform="translate(828.345 35.799)" fill="#99c21d"/>
    <ellipse id="Ellipse_22" data-name="Ellipse 22" cx="28.239" cy="13.716" rx="28.239" ry="13.716" transform="translate(824.815 33.446)" fill="none" stroke="#3f3d56" stroke-miterlimit="10" stroke-width="1"/>
    <ellipse id="Ellipse_23" data-name="Ellipse 23" cx="28.239" cy="13.716" rx="28.239" ry="13.716" transform="translate(568.311 144.048)" fill="#99c21d"/>
    <ellipse id="Ellipse_24" data-name="Ellipse 24" cx="28.239" cy="13.716" rx="28.239" ry="13.716" transform="translate(564.781 141.695)" fill="none" stroke="#3f3d56" stroke-miterlimit="10" stroke-width="1"/>
    <ellipse id="Ellipse_25" data-name="Ellipse 25" cx="28.239" cy="13.716" rx="28.239" ry="13.716" transform="translate(665.971 136.989)" fill="#99c21d"/>
    <ellipse id="Ellipse_26" data-name="Ellipse 26" cx="28.239" cy="13.716" rx="28.239" ry="13.716" transform="translate(662.441 134.635)" fill="none" stroke="#3f3d56" stroke-miterlimit="10" stroke-width="1"/>
    <ellipse id="Ellipse_27" data-name="Ellipse 27" cx="28.239" cy="13.716" rx="28.239" ry="13.716" transform="translate(794.223 147.578)" fill="#99c21d"/>
    <ellipse id="Ellipse_28" data-name="Ellipse 28" cx="28.239" cy="13.716" rx="28.239" ry="13.716" transform="translate(790.693 145.225)" fill="none" stroke="#3f3d56" stroke-miterlimit="10" stroke-width="1"/>
    <ellipse id="Ellipse_29" data-name="Ellipse 29" cx="28.239" cy="13.716" rx="28.239" ry="13.716" transform="translate(725.979 152.285)" fill="#99c21d"/>
    <ellipse id="Ellipse_30" data-name="Ellipse 30" cx="28.239" cy="13.716" rx="28.239" ry="13.716" transform="translate(722.449 149.932)" fill="none" stroke="#3f3d56" stroke-miterlimit="10" stroke-width="1"/>
    <ellipse id="Ellipse_31" data-name="Ellipse 31" cx="28.239" cy="13.716" rx="28.239" ry="13.716" transform="translate(730.685 34.622)" fill="#99c21d"/>
    <ellipse id="Ellipse_32" data-name="Ellipse 32" cx="28.239" cy="13.716" rx="28.239" ry="13.716" transform="translate(727.155 32.269)" fill="none" stroke="#3f3d56" stroke-miterlimit="10" stroke-width="1"/>
    <ellipse id="Ellipse_33" data-name="Ellipse 33" cx="28.239" cy="13.716" rx="28.239" ry="13.716" transform="translate(609.493 107.573)" fill="#99c21d"/>
    <ellipse id="Ellipse_34" data-name="Ellipse 34" cx="28.239" cy="13.716" rx="28.239" ry="13.716" transform="translate(605.963 105.22)" fill="none" stroke="#3f3d56" stroke-miterlimit="10" stroke-width="1"/>
    <ellipse id="Ellipse_35" data-name="Ellipse 35" cx="28.239" cy="13.716" rx="28.239" ry="13.716" transform="translate(625.965 160.521)" fill="#99c21d"/>
    <ellipse id="Ellipse_36" data-name="Ellipse 36" cx="28.239" cy="13.716" rx="28.239" ry="13.716" transform="translate(622.436 158.168)" fill="none" stroke="#3f3d56" stroke-miterlimit="10" stroke-width="1"/>
    <g id="Group_1" data-name="Group 1" opacity="0.3">
      <ellipse id="Ellipse_37" data-name="Ellipse 37" cx="14.794" cy="6.407" rx="14.794" ry="6.407" transform="translate(636.461 274.552) rotate(-60.799)" fill="#57b894"/>
      <ellipse id="Ellipse_38" data-name="Ellipse 38" cx="14.794" cy="6.407" rx="14.794" ry="6.407" transform="translate(634.599 275.63) rotate(-60.799)" fill="none" stroke="#3f3d56" stroke-miterlimit="10" stroke-width="1"/>
    </g>
    <g id="Group_2" data-name="Group 2" opacity="0.3">
      <ellipse id="Ellipse_39" data-name="Ellipse 39" cx="6.407" cy="14.794" rx="6.407" ry="14.794" transform="matrix(0.667, -0.745, 0.745, 0.667, 775.731, 287.125)" fill="#57b894"/>
      <ellipse id="Ellipse_40" data-name="Ellipse 40" cx="6.407" cy="14.794" rx="6.407" ry="14.794" transform="matrix(0.667, -0.745, 0.745, 0.667, 775.086, 285.072)" fill="none" stroke="#3f3d56" stroke-miterlimit="10" stroke-width="1"/>
    </g>
    <g id="Group_3" data-name="Group 3" opacity="0.3">
      <ellipse id="Ellipse_41" data-name="Ellipse 41" cx="6.407" cy="14.794" rx="6.407" ry="14.794" transform="matrix(0.667, -0.745, 0.745, 0.667, 643.949, 212.997)" fill="#57b894"/>
      <ellipse id="Ellipse_42" data-name="Ellipse 42" cx="6.407" cy="14.794" rx="6.407" ry="14.794" transform="matrix(0.667, -0.745, 0.745, 0.667, 643.304, 210.945)" fill="none" stroke="#3f3d56" stroke-miterlimit="10" stroke-width="1"/>
    </g>
    <path id="Path_11" data-name="Path 11" d="M1011.4,523.337c0,4.01-8.993,6.987-9.877,10.856-.1.441-.864,9.411-7.856,10.34-7.762,2.476,10.375,12.533,0,13.933-36.043,1.9-87.077-.131-135.523,0-74.14.2-142.443,1.625-143.577,0-2.333-3.34,2.245-10.4.617-13.933-1.69-3.664-8.756-5.152-9.632-8.989a56.433,56.433,0,0,1-1.384-12.207c0-4.01,6.043-7.075,6.927-10.943.877-3.837-3.571-9.348-1.88-13.012,1.629-3.531,1.421-8.959,3.754-12.3,2.215-3.171,7.742-4.415,10.548-7.389,2.652-2.812,7.4-3.6,10.543-6.21,2.977-2.476,2.6-9.942,5.983-12.221,3.219-2.167,7.712-3.156,11.273-5.129,3.4-1.886,8.217-1.568,11.907-3.263,3.542-1.627,9.091,1.579,12.878.14,3.652-1.388,6.614-4.421,10.476-5.623,3.737-1.163,5.493-10.035,9.409-11.014,3.8-.951,8.481.628,12.437-.141,3.854-.749,9.04,6.251,13.025,5.684,3.892-.554,6.8-9.9,10.806-10.27,3.918-.365,8.337,4.475,12.349,4.29,3.935-.181,7.886,2.655,11.9,2.655s8.012-3.892,11.946-3.711c4.013.184,7.551,5.327,11.469,5.692,4,.373,8.919-7.45,12.811-6.9,3.985.567,7.064,6.614,10.918,7.363,3.957.769,8.912-2.986,12.716-2.034,3.916.979,6.273,7.407,10.01,8.57,3.861,1.2,6.24,5.736,9.892,7.124,3.788,1.439,10.823-5.294,14.366-3.667,3.69,1.7,6.878,4.628,10.28,6.514,3.56,1.973,9.22.981,12.439,3.148,3.385,2.279,4.218,8.4,7.195,10.874,3.143,2.614,8.327,3.4,10.98,6.213,2.805,2.974,3.2,8.3,5.41,11.476,2.333,3.34,2.26,7.969,3.888,11.5,1.69,3.664,6.2,6.435,7.078,10.271C1008.786,514.9,1011.4,519.328,1011.4,523.337Z" transform="translate(-157 -122.599)" fill="#6f3015"/>
  </g>
</svg>
